<svg xmlns="http://www.w3.org/2000/svg"  viewBox="0 0 48 48" width="48px" height="48px" fill-rule="evenodd" clip-rule="evenodd" baseProfile="basic"><path fill="#1574c0" fill-rule="evenodd" d="M4,26	c0-0.596,0-3.403,0-4c0-1.104,0.896-2,2-2c0.172,0,1.827,0,2,0c1.104,0,2,0.896,2,2c0,0.599,0,3.404,0,4c0,1.104-0.896,2-2,2	c-0.173,0-1.828,0-2,0C4.896,28,4,27.104,4,26z" clip-rule="evenodd"/><path fill="#1574c0" fill-rule="evenodd" d="M44,26	c0-0.596,0-3.403,0-4c0-1.104-0.896-2-2-2c-0.172,0-1.827,0-2,0c-1.104,0-2,0.896-2,2c0,0.599,0,3.404,0,4c0,1.104,0.896,2,2,2	c0.173,0,1.828,0,2,0C43.104,28,44,27.104,44,26z" clip-rule="evenodd"/><rect width="2.001" height="7.999" x="23" y="5.999" fill="#1574c0" fill-rule="evenodd" clip-rule="evenodd"/><path fill="#2196f3" d="M36,11H12c-2.761,0-5,2.24-5,5v28l7-7h22c2.76,0,5-2.239,5-5	V16C41,13.24,38.76,11,36,11z"/><ellipse cx="24" cy="5.999" fill="#2196f3" fill-rule="evenodd" clip-rule="evenodd" rx="2" ry="1.999"/><circle cx="17.499" cy="21.501" r="2.5" fill="#fff" fill-rule="evenodd" clip-rule="evenodd"/><path fill="#fff" fill-rule="evenodd" d="M20,28h8	c-0.593,1.748-2.163,3-4,3C22.161,31,20.593,29.748,20,28z" clip-rule="evenodd"/><circle cx="30.497" cy="21.501" r="2.5" fill="#fff" fill-rule="evenodd" clip-rule="evenodd"/></svg>