<?xml version="1.0" standalone="no"?>
<!DOCTYPE svg PUBLIC "-//W3C//DTD SVG 20010904//EN"
 "http://www.w3.org/TR/2001/REC-SVG-20010904/DTD/svg10.dtd">
<svg version="1.0" xmlns="http://www.w3.org/2000/svg"
 width="1024.000000pt" height="1024.000000pt" viewBox="0 0 1024.000000 1024.000000"
 preserveAspectRatio="xMidYMid meet">

<g transform="translate(0.000000,1024.000000) scale(0.100000,-0.100000)"
fill="#000000" stroke="none">
<path d="M4867 10204 c-4 -5 -85 -9 -180 -9 -166 0 -289 -12 -427 -40 -36 -7
-92 -18 -125 -25 -137 -26 -229 -47 -380 -87 -63 -16 -194 -57 -220 -68 -16
-6 -57 -20 -90 -30 -264 -81 -712 -291 -985 -463 -119 -75 -116 -74 -300 -46
-134 20 -435 96 -454 115 -6 5 -18 9 -28 9 -10 0 -26 4 -36 9 -9 5 -33 16 -52
24 -19 9 -56 25 -81 36 -25 12 -48 21 -52 21 -4 0 -7 -218 -7 -485 l0 -485
-56 -63 c-31 -34 -62 -66 -68 -72 -17 -15 -146 -164 -181 -209 -16 -21 -52
-66 -79 -100 -26 -33 -78 -104 -114 -156 -37 -52 -70 -99 -75 -105 -18 -22
-145 -223 -168 -265 -13 -25 -26 -47 -29 -50 -17 -17 -121 -218 -206 -395 -66
-140 -158 -367 -193 -480 -13 -38 -31 -92 -41 -120 -62 -170 -143 -518 -184
-793 -27 -176 -33 -257 -52 -694 -4 -97 -2 -181 6 -245 7 -54 14 -159 15 -233
4 -175 51 -511 95 -680 5 -19 16 -69 26 -110 52 -241 253 -803 349 -979 8 -14
35 -69 60 -121 26 -52 55 -107 66 -121 10 -15 19 -30 19 -33 0 -19 286 -476
310 -496 3 -3 17 -21 30 -40 13 -19 27 -37 30 -40 4 -3 20 -25 37 -50 17 -25
40 -54 50 -65 10 -11 40 -47 67 -80 76 -94 223 -257 352 -389 44 -45 248 -232
257 -235 6 -2 20 -14 31 -25 12 -12 41 -37 66 -56 25 -19 56 -45 70 -58 14
-13 37 -31 53 -40 15 -9 27 -19 27 -23 0 -4 21 -21 47 -38 27 -16 71 -46 98
-66 59 -43 220 -148 289 -190 49 -30 74 -45 176 -103 121 -70 521 -262 545
-262 8 0 16 -4 20 -9 3 -5 18 -12 35 -16 16 -3 47 -15 68 -25 51 -25 118 -50
162 -60 19 -4 62 -17 95 -29 33 -11 87 -28 120 -37 33 -9 80 -23 105 -31 57
-19 146 -39 365 -82 248 -49 470 -75 638 -75 53 0 97 -2 97 -6 0 -10 313 -11
440 -1 71 6 126 6 128 1 2 -4 16 -5 31 0 15 4 65 11 112 15 121 10 131 12 264
29 66 9 134 20 150 25 17 5 62 15 100 22 59 10 136 28 375 89 122 30 368 112
425 140 11 5 49 19 85 31 36 12 83 32 105 44 22 12 56 27 76 34 46 15 273 126
359 176 36 21 90 51 120 68 30 17 78 46 107 64 29 18 55 33 59 33 3 0 29 17
57 37 28 21 59 43 69 48 25 14 123 82 183 127 28 21 55 42 60 46 43 32 101 78
105 82 3 4 15 13 27 21 13 9 48 38 79 65 32 27 80 69 108 93 28 24 86 79 130
122 43 44 80 79 82 79 1 0 27 25 56 56 29 31 69 73 88 93 51 53 87 95 164 190
37 46 77 93 88 105 11 11 34 41 51 66 33 48 34 49 71 95 66 83 246 366 334
523 85 154 282 568 282 594 0 4 8 27 19 51 26 60 66 171 91 252 12 39 30 93
39 120 10 28 24 77 31 110 7 33 24 98 37 145 21 74 45 187 59 285 3 17 13 77
24 135 11 58 22 137 25 175 3 39 11 111 16 160 6 50 12 232 14 405 2 255 -1
350 -16 500 -36 338 -79 596 -129 765 -10 33 -28 103 -40 155 -11 52 -25 99
-30 105 -4 5 -15 35 -23 65 -31 110 -46 156 -68 210 -114 282 -109 270 -161
380 -22 47 -45 96 -51 110 -7 14 -14 27 -17 30 -3 3 -18 32 -34 65 -16 33 -55
106 -87 163 -33 57 -59 107 -59 112 0 5 -4 10 -8 12 -5 2 -30 37 -56 78 -27
41 -70 108 -97 147 -27 40 -49 77 -49 83 0 5 -4 10 -8 10 -4 0 -15 12 -24 28
-9 15 -27 39 -40 53 -13 14 -35 43 -50 66 -15 23 -37 52 -50 65 -21 21 -44 49
-151 183 -18 22 -69 79 -115 126 l-83 87 1 482 c1 265 -1 484 -4 487 -3 3 -16
-1 -28 -9 -13 -8 -43 -22 -68 -32 -25 -10 -58 -24 -75 -31 -16 -7 -61 -23
-100 -35 -38 -12 -95 -30 -125 -40 -30 -10 -71 -22 -90 -26 -19 -4 -42 -9 -50
-12 -17 -4 -229 -38 -306 -48 -42 -5 -57 -3 -80 13 -70 47 -144 93 -204 125
-36 19 -83 46 -105 58 -46 27 -334 170 -341 170 -3 0 -31 12 -62 26 -31 15
-61 27 -67 29 -5 1 -26 9 -46 18 -19 9 -47 19 -62 22 -14 4 -31 13 -38 21 -6
8 -20 14 -30 14 -10 0 -36 6 -56 14 -21 7 -56 19 -78 26 -22 7 -53 18 -70 25
-29 13 -131 43 -170 51 -11 2 -47 12 -80 23 -33 11 -78 22 -100 26 -22 4 -65
13 -95 20 -93 23 -243 54 -290 60 -25 3 -72 10 -105 16 -33 6 -85 13 -115 15
-196 15 -843 28 -853 18z m738 -118 c526 -57 983 -175 1450 -373 225 -95 605
-294 605 -317 0 -13 -421 1 -555 19 -60 8 -171 23 -245 35 -278 42 -413 53
-640 54 -285 0 -403 -17 -635 -91 -144 -47 -316 -147 -426 -250 -25 -24 -50
-43 -55 -43 -5 0 -31 21 -59 46 -190 172 -413 270 -725 320 -201 32 -594 21
-895 -25 -245 -38 -347 -51 -464 -61 -170 -13 -401 -13 -401 0 0 5 28 26 63
46 79 48 382 202 467 238 36 16 79 34 95 42 137 61 433 161 635 214 341 91
561 126 1010 164 103 9 644 -4 775 -18z m-3955 -636 c96 -36 266 -82 400 -109
200 -40 364 -55 630 -55 273 0 383 8 680 55 613 95 1024 72 1340 -77 151 -72
255 -149 363 -272 l38 -43 87 89 c136 139 287 230 476 287 319 95 661 98 1226
11 272 -43 368 -50 630 -50 404 0 717 48 1025 158 55 20 101 36 103 36 1 0 2
-1294 2 -2876 l0 -2877 -47 -109 c-25 -60 -50 -111 -55 -114 -4 -3 -8 1314 -8
2925 0 2632 -2 2931 -15 2931 -9 0 -32 -8 -53 -19 -120 -61 -314 -118 -507
-151 -354 -59 -644 -50 -1215 39 -315 50 -368 55 -600 55 -289 1 -426 -23
-618 -107 -149 -64 -323 -203 -399 -318 -14 -21 -29 -39 -33 -39 -4 0 -19 17
-33 39 -104 156 -303 298 -513 364 -165 52 -241 62 -489 61 -240 0 -283 -4
-635 -59 -546 -86 -828 -94 -1183 -35 -200 33 -388 90 -520 157 -35 17 -49 20
-52 11 -3 -7 -6 -1329 -8 -2938 l-2 -2925 -52 118 -53 117 0 2875 c0 1581 2
2875 4 2875 3 0 41 -14 86 -30z m4939 -569 c59 -55 121 -234 121 -351 0 -67
16 -45 28 39 6 43 19 97 28 120 13 34 21 41 43 41 83 0 129 -117 112 -285 -4
-44 -7 -81 -6 -83 2 -2 14 16 28 40 35 60 61 82 90 74 33 -8 47 -46 47 -127 0
-49 -8 -94 -25 -145 -14 -41 -25 -77 -25 -80 0 -3 16 8 35 25 50 43 83 50 107
21 38 -46 13 -148 -67 -271 -50 -77 -46 -77 53 8 74 62 97 71 123 47 14 -13
19 -30 19 -73 0 -78 -37 -148 -119 -223 l-65 -59 84 40 c121 59 170 52 170
-25 0 -64 -47 -129 -146 -200 l-29 -21 50 7 c52 8 104 -4 106 -23 5 -50 -29
-102 -85 -132 -41 -22 -46 -35 -13 -35 48 0 62 -48 28 -92 -11 -13 -40 -35
-65 -48 l-45 -24 30 -13 c21 -9 29 -19 29 -37 0 -43 -38 -67 -148 -96 -34 -9
-41 -14 -33 -24 20 -24 -4 -62 -54 -86 l-47 -23 31 -13 c22 -9 31 -20 31 -37
0 -33 -25 -53 -92 -73 l-57 -18 29 -18 c55 -33 31 -78 -56 -104 -26 -8 -62
-14 -81 -14 -38 0 -43 -11 -10 -25 54 -24 -4 -85 -80 -85 -25 0 -33 -4 -33
-18 0 -36 -37 -56 -112 -60 -67 -4 -69 -5 -64 -28 7 -27 -16 -44 -58 -44 -16
0 -26 -6 -26 -15 0 -21 -33 -35 -84 -35 -38 0 -46 -3 -46 -19 0 -11 -12 -24
-31 -32 -31 -12 -71 -8 -148 16 -21 7 -22 6 -12 -13 9 -18 8 -25 -9 -42 -17
-17 -28 -19 -58 -14 -20 4 -44 10 -53 15 -10 5 -21 1 -32 -12 -22 -25 -55 -24
-153 6 -16 5 -23 2 -27 -14 -7 -29 -81 -29 -143 1 -45 22 -46 22 -59 4 -13
-17 -11 -24 18 -64 50 -71 143 -160 260 -250 59 -46 121 -101 138 -122 68 -84
263 -162 553 -220 61 -13 116 -52 116 -84 0 -22 -48 -55 -91 -62 -34 -6 -38
-9 -33 -29 4 -16 -1 -30 -14 -43 -22 -22 -98 -38 -132 -29 -14 4 -25 -2 -36
-19 -23 -35 -76 -46 -166 -34 -41 5 -95 16 -119 24 -60 21 -63 20 -38 -14 22
-29 22 -30 4 -50 -24 -27 -69 -26 -149 4 l-65 25 -3 -27 c-6 -54 -85 -45 -178
22 l-50 36 -10 -25 c-6 -17 -17 -25 -33 -25 -23 0 -76 45 -105 88 -9 14 -24
22 -43 22 -23 0 -35 9 -56 42 l-28 41 -7 -46 c-3 -25 -9 -51 -13 -56 -8 -14
-38 -14 -51 -1 -8 8 -19 -2 -38 -30 -28 -43 -54 -51 -80 -24 -14 14 -21 11
-75 -25 -62 -42 -84 -82 -59 -107 7 -7 53 -24 102 -39 57 -18 97 -36 112 -52
22 -24 41 -80 51 -155 8 -60 -26 -85 -157 -118 -49 -13 -106 5 -160 49 -114
95 -183 141 -207 141 -29 0 -68 11 -151 44 -69 26 -116 78 -108 116 6 32 -1
40 -88 99 -46 31 -66 39 -87 34 -19 -4 -50 5 -101 30 -87 41 -131 76 -148 117
-9 22 -31 40 -81 66 -80 42 -107 79 -118 157 -4 28 -13 63 -20 75 -40 73 60
158 137 118 17 -9 47 -16 66 -16 55 0 77 -16 141 -101 40 -54 68 -81 85 -85
14 -2 55 -20 91 -39 77 -40 106 -43 143 -14 21 17 24 24 15 35 -18 22 -3 42
38 49 59 10 164 45 200 67 38 23 69 63 79 102 6 26 5 27 -14 17 -17 -9 -28 -5
-71 29 -28 22 -51 35 -51 28 -1 -7 -20 8 -44 34 -33 36 -50 67 -70 130 -15 46
-38 101 -50 123 -29 49 -136 128 -144 105 -11 -32 -89 -100 -116 -100 -31 0
-31 1 -7 48 23 46 34 92 23 92 -5 0 -26 -17 -47 -37 -40 -41 -74 -104 -75
-140 0 -32 -14 -36 -45 -11 -59 46 -72 146 -30 236 19 41 22 58 15 78 -16 41
-11 95 14 155 33 81 61 117 130 161 80 51 152 71 253 70 l82 -1 -10 27 c-60
159 -255 307 -571 433 -241 96 -428 207 -544 324 -80 81 -118 149 -119 215 0
40 3 45 23 48 16 3 40 -10 73 -38 28 -23 52 -41 54 -39 2 2 -15 33 -37 69 -72
117 -135 256 -148 324 -18 99 11 196 60 196 17 0 59 -40 78 -75 10 -17 11 -13
12 25 0 64 25 148 51 176 13 14 34 24 50 24 38 0 53 -39 73 -185 9 -66 20
-136 25 -155 7 -34 8 -33 15 26 10 81 36 124 75 124 56 0 86 -64 98 -203 3
-42 8 -75 11 -73 2 3 8 26 13 52 11 58 25 76 58 72 42 -5 61 -56 61 -167 0
-91 1 -93 18 -78 48 44 75 8 102 -134 27 -137 28 -141 45 -102 16 38 58 54 81
31 13 -13 30 -82 49 -202 6 -37 7 -38 21 -17 20 27 50 27 68 -1 8 -13 32 -63
52 -112 l38 -90 10 44 c23 94 63 76 122 -56 36 -79 54 -103 54 -69 0 8 10 19
21 26 35 18 65 -3 86 -60 17 -49 18 -50 36 -31 10 11 22 20 27 20 16 0 37 -42
55 -110 20 -73 75 -193 105 -229 l20 -23 57 49 c32 28 77 62 100 77 69 42 230
121 338 164 268 108 429 193 543 289 66 56 104 112 133 194 21 58 23 83 25
285 1 122 5 235 8 251 4 17 20 43 37 59 25 23 33 26 56 18 44 -16 64 -54 82
-165 l18 -104 8 69 c16 140 -5 295 -71 517 -21 73 -34 137 -34 173 0 50 4 61
29 87 35 35 53 36 105 6 52 -30 70 -56 106 -157 25 -73 30 -80 30 -48 0 20 -9
89 -21 155 -28 162 -30 244 -5 272 28 31 77 28 115 -8z m-5139 -1384 c0 -595
-4 -1007 -9 -1013 -32 -33 -154 -467 -190 -679 -111 -648 -66 -1297 131 -1890
197 -592 502 -1093 930 -1527 171 -173 251 -244 414 -369 84 -65 349 -249 358
-249 1 0 52 -28 112 -61 560 -315 1163 -480 1809 -496 945 -22 1816 272 2555
863 140 113 409 373 523 506 397 466 686 1027 827 1610 74 307 99 502 107 828
11 496 -50 890 -213 1375 l-44 130 0 982 c0 562 4 984 9 987 9 6 136 -136 242
-269 404 -508 717 -1107 888 -1702 131 -452 187 -828 198 -1308 11 -518 -49
-981 -193 -1478 -198 -682 -539 -1310 -1007 -1857 -227 -264 -553 -571 -797
-748 -47 -34 -90 -66 -97 -72 -6 -5 -76 -52 -155 -104 -620 -408 -1291 -664
-2018 -770 -297 -43 -410 -51 -735 -50 -508 2 -914 59 -1385 195 -299 87 -690
245 -919 373 -46 25 -85 46 -87 46 -8 0 -233 136 -328 198 -91 59 -331 232
-387 280 -13 11 -69 58 -124 103 -113 94 -407 384 -511 504 -395 455 -687 933
-899 1475 -169 432 -275 875 -321 1345 -24 243 -24 696 -1 925 107 1054 501
1980 1182 2780 65 77 123 140 127 140 4 0 8 -451 8 -1003z m10 -2372 c0 -847
-2 -1005 -14 -1005 -21 0 -36 23 -35 56 0 36 -6 83 -14 109 -14 42 -56 295
-67 395 -6 58 -15 144 -20 191 -13 110 -13 386 -1 481 6 40 12 109 15 153 5
85 18 163 61 390 15 77 28 152 29 168 1 15 3 36 4 47 1 13 9 20 22 20 20 0 20
-7 20 -1005z m7315 977 c1 -4 8 -27 17 -52 21 -58 58 -226 68 -310 5 -36 18
-132 30 -215 20 -137 21 -179 17 -470 -4 -262 -9 -343 -26 -445 -11 -69 -26
-154 -32 -190 -15 -89 -39 -196 -55 -248 -8 -23 -14 -49 -14 -57 0 -8 -7 -15
-15 -15 -13 0 -15 118 -15 1003 0 552 3 1007 7 1010 7 7 18 0 18 -11z m-4940
-1374 c2 -7 18 -125 35 -263 17 -137 39 -315 50 -395 11 -80 33 -253 50 -385
57 -451 120 -940 145 -1135 14 -107 25 -196 25 -197 0 -2 -123 -3 -274 -3
l-273 0 -6 48 c-3 26 -9 101 -13 167 -4 66 -11 128 -16 138 -7 14 -23 17 -87
17 -51 0 -82 -4 -89 -12 -5 -7 -16 -91 -23 -185 l-13 -173 -278 0 c-237 0
-278 2 -278 15 0 8 4 47 10 87 5 40 21 181 35 313 14 132 29 274 35 315 13 97
25 203 56 485 14 127 32 284 39 350 26 230 75 660 81 710 3 28 7 65 10 83 l5
32 385 0 c299 0 386 -3 389 -12z m3345 3 c0 -6 7 -61 15 -123 21 -163 89 -699
120 -938 14 -113 34 -272 45 -355 11 -82 34 -256 50 -385 16 -129 39 -302 50
-385 11 -82 20 -160 20 -172 l0 -23 -274 0 -274 0 -7 113 c-4 61 -10 144 -14
182 l-6 70 -91 3 -92 3 -5 -43 c-4 -24 -9 -79 -12 -123 -3 -44 -8 -108 -11
-142 l-6 -63 -279 0 -280 0 6 33 c3 17 18 151 35 297 16 146 34 306 39 355 6
50 31 270 56 490 25 220 52 456 60 525 22 185 75 660 75 676 0 12 61 14 390
14 239 0 390 -4 390 -9z m-2180 -318 c128 -39 235 -108 276 -179 40 -69 54
-137 61 -301 l6 -153 -251 0 -250 0 -4 134 c-2 115 -6 137 -22 155 -28 31 -86
28 -117 -5 -22 -23 -24 -36 -27 -127 -3 -90 0 -107 20 -147 24 -47 21 -44 323
-243 180 -118 256 -190 299 -280 50 -104 68 -204 68 -382 1 -283 -42 -389
-191 -479 -255 -155 -664 -131 -872 53 -100 87 -132 196 -133 451 l-1 175 245
0 245 0 5 -191 c6 -220 11 -234 82 -234 52 0 77 15 94 55 19 46 18 207 -1 272
-19 65 -67 109 -253 235 -282 190 -327 230 -382 341 -35 71 -60 203 -60 317 0
103 27 259 55 316 45 91 134 164 252 205 95 34 131 38 303 35 129 -3 179 -8
230 -23z m1048 -1123 l-3 -931 -265 0 -265 -1 -3 749 -2 749 31 47 c44 67 178
189 255 232 75 42 186 83 227 84 l28 1 -3 -930z"/>
<path d="M6510 8813 c0 -27 10 -102 21 -168 29 -169 35 -406 14 -510 -22 -107
-29 -175 -18 -175 5 0 19 19 31 43 12 23 33 56 45 73 34 46 52 177 52 369 -1
205 -29 318 -98 393 -33 36 -47 28 -47 -25z"/>
<path d="M6806 8652 c-3 -15 -15 -88 -27 -162 -21 -135 -47 -253 -76 -343 -14
-44 -14 -49 1 -66 9 -9 16 -23 16 -30 0 -53 78 107 116 238 34 117 43 273 20
335 -21 54 -42 66 -50 28z"/>
<path d="M6299 8589 c-14 -27 -5 -86 32 -206 37 -123 59 -260 59 -375 0 -102
-27 -243 -58 -305 -11 -21 -22 -59 -25 -86 -7 -48 -38 -120 -58 -133 -9 -5 -9
8 -3 52 5 32 9 127 9 209 0 120 -4 161 -19 204 -31 90 -40 46 -47 -229 -3
-135 -10 -259 -16 -275 -67 -197 -230 -318 -668 -496 -359 -145 -530 -252
-600 -376 -10 -18 -22 -30 -27 -27 -11 7 -10 72 2 79 20 13 9 46 -36 100 -87
108 -183 183 -358 281 -361 202 -497 295 -632 436 -133 139 -213 273 -276 463
-29 90 -61 252 -74 378 -4 37 -11 67 -15 67 -14 0 -36 -52 -42 -101 -16 -120
75 -469 140 -541 15 -17 15 -20 0 -35 -15 -16 -18 -15 -37 2 -28 25 -77 128
-140 294 -88 229 -105 256 -122 180 -18 -83 56 -267 184 -459 20 -31 48 -66
63 -80 28 -26 33 -58 10 -66 -23 -9 -71 14 -146 73 -38 29 -69 48 -69 42 0
-23 42 -88 85 -132 119 -121 313 -233 592 -343 320 -125 486 -263 574 -478 22
-55 27 -60 82 -84 46 -20 57 -29 54 -43 -3 -11 4 -24 19 -34 29 -19 31 -39 4
-58 -19 -13 -19 -14 10 -42 39 -37 38 -51 -5 -76 l-35 -21 35 -39 c41 -45 42
-52 15 -70 -18 -13 -19 -17 -8 -47 16 -42 0 -55 -60 -47 -53 8 -66 -14 -32
-50 14 -15 20 -30 16 -41 -5 -14 -15 -16 -61 -10 -53 6 -56 5 -66 -21 -11 -29
-5 -66 18 -125 13 -31 20 -38 43 -38 20 0 29 -6 34 -22 3 -13 18 -36 32 -52
23 -26 27 -28 36 -13 15 27 37 20 91 -29 49 -43 114 -83 165 -99 19 -5 23 -3
20 12 -2 12 4 19 19 21 19 3 23 -3 29 -44 9 -63 -2 -157 -25 -208 -10 -24 -44
-73 -75 -109 -31 -37 -56 -68 -56 -70 0 -2 16 -1 35 1 30 4 35 1 35 -17 0 -26
5 -26 41 0 44 31 70 22 87 -29 12 -37 16 -42 28 -30 7 7 19 38 27 68 15 59 33
73 54 44 11 -16 13 -13 13 29 0 43 2 47 25 47 14 0 25 -4 25 -10 0 -5 5 -10
11 -10 15 0 6 128 -12 178 -10 28 -9 36 4 50 15 14 18 14 35 -2 19 -16 20 -15
24 38 5 66 29 106 63 106 31 0 33 -22 5 -50 -29 -29 -25 -64 10 -93 65 -55
107 -44 66 18 -35 50 -33 61 7 37 89 -55 103 -62 120 -62 23 0 22 8 -13 59
-48 71 -35 78 31 16 55 -50 130 -105 144 -105 14 0 1 25 -40 81 -44 60 -58 97
-32 86 160 -68 194 -79 202 -67 3 4 -65 67 -150 139 -85 73 -174 155 -199 183
l-44 51 -44 -22 c-30 -14 -64 -21 -103 -21 -67 0 -66 6 7 31 73 26 114 58 140
108 34 65 99 114 248 187 74 36 147 77 163 92 37 35 36 70 -3 85 -16 6 -30 14
-30 18 0 8 -6 6 169 53 165 45 255 86 276 126 8 16 15 31 15 35 0 10 -47 5
-89 -10 -22 -8 -41 -10 -41 -6 0 5 15 31 33 57 35 51 92 101 193 169 75 51
174 147 174 168 0 13 -10 17 -45 17 -25 0 -45 3 -45 6 0 18 60 122 104 181
105 139 153 240 127 266 -9 9 -22 8 -60 -6 -27 -9 -51 -17 -53 -17 -3 0 3 38
13 85 47 222 55 384 20 418 -14 13 -15 12 -99 -102 -26 -36 -51 -66 -57 -68
-6 -2 -10 50 -11 140 -1 168 -24 325 -65 451 -47 142 -92 197 -120 145z m17
-1241 c12 -24 15 -48 11 -95 -9 -118 -82 -205 -275 -328 -51 -31 -92 -61 -92
-65 0 -4 11 -11 24 -14 32 -8 43 -42 21 -66 -24 -27 -157 -93 -240 -120 l-70
-23 33 -14 c57 -23 42 -59 -60 -139 -39 -32 -92 -79 -118 -106 -25 -26 -49
-48 -53 -48 -4 0 -7 12 -7 28 0 31 38 77 123 147 64 53 71 77 27 95 -16 7 -30
16 -30 20 0 14 60 46 145 80 93 36 175 86 175 106 0 9 -17 14 -52 16 l-53 3
120 82 c153 104 213 158 264 234 44 66 62 117 67 194 2 28 3 51 4 53 1 10 22
-14 36 -40z"/>
<path d="M6992 8378 c-11 -18 -48 -87 -82 -153 -34 -66 -86 -156 -115 -200
-49 -74 -53 -85 -57 -154 l-5 -73 28 28 c52 53 149 188 188 264 46 89 81 205
81 272 0 56 -11 60 -38 16z"/>
<path d="M3660 8104 c-18 -83 1 -227 45 -359 19 -54 65 -139 72 -132 2 3 -5
54 -16 113 -11 60 -25 168 -31 239 -12 126 -29 195 -49 195 -5 0 -15 -25 -21
-56z"/>
<path d="M7084 8092 c-21 -20 -116 -121 -210 -222 -135 -147 -174 -195 -187
-233 l-16 -48 32 6 c126 26 404 346 432 498 9 47 -1 47 -51 -1z"/>
<path d="M3845 7924 c-12 -118 22 -417 53 -459 9 -14 20 -25 25 -25 9 0 9 -4
-8 54 -23 76 -45 264 -45 387 0 121 -14 145 -25 43z"/>
<path d="M7144 7824 c-91 -79 -192 -157 -280 -214 -48 -31 -52 -37 -57 -79 -3
-25 -4 -47 -3 -49 5 -4 167 88 231 131 87 59 164 135 191 189 24 48 32 98 15
98 -5 0 -49 -34 -97 -76z"/>
<path d="M3963 7653 c6 -123 48 -291 78 -315 30 -26 40 -22 28 10 -16 38 -42
147 -69 285 -13 64 -28 117 -33 117 -6 0 -8 -40 -4 -97z"/>
<path d="M7155 7556 c-146 -71 -303 -138 -356 -151 -15 -4 -39 -25 -58 -52
l-33 -46 44 7 c175 27 388 105 485 176 44 33 92 115 76 131 -5 5 -68 -20 -158
-65z"/>
<path d="M4123 7483 c7 -90 41 -233 60 -245 23 -15 26 -8 13 30 -8 22 -21 84
-30 138 -24 144 -27 154 -38 154 -7 0 -9 -26 -5 -77z"/>
<path d="M7066 7310 c-194 -45 -333 -70 -385 -70 -30 0 -42 -7 -68 -40 -18
-21 -33 -42 -33 -45 0 -9 147 3 275 21 197 28 368 88 424 148 l24 26 -34 -1
c-19 0 -110 -18 -203 -39z"/>
<path d="M4281 7283 c23 -88 41 -132 56 -137 26 -10 26 -1 0 51 -13 26 -30 65
-36 86 -7 20 -16 37 -21 37 -5 0 -4 -17 1 -37z"/>
<path d="M4456 7176 c8 -57 34 -115 55 -127 11 -5 19 -8 19 -5 0 2 -18 41 -40
87 -34 71 -39 78 -34 45z"/>
<path d="M7085 7144 c-101 -17 -335 -44 -386 -44 -35 0 -39 -3 -39 -24 0 -14
-5 -28 -10 -31 -19 -12 0 -23 32 -20 18 2 82 6 142 9 167 9 366 63 405 109 12
15 10 17 -25 16 -22 -1 -75 -7 -119 -15z"/>
<path d="M4631 7056 c-1 -28 21 -96 31 -96 9 0 6 16 -18 80 -7 21 -13 27 -13
16z"/>
<path d="M7005 6980 c-33 -4 -141 -8 -240 -9 -160 -1 -183 -4 -204 -20 l-25
-19 59 -7 c82 -11 356 1 435 19 36 7 81 21 100 29 l35 15 -50 0 c-27 -1 -77
-4 -110 -8z"/>
<path d="M6441 6864 c-34 -24 -18 -30 144 -50 118 -15 156 -16 240 -6 56 6
114 17 130 24 26 10 4 13 -170 19 -110 4 -224 12 -254 18 -67 14 -62 14 -90
-5z"/>
<path d="M6313 6771 c-30 -25 -29 -32 5 -25 16 3 54 -3 87 -14 139 -46 396
-67 490 -40 38 11 39 12 15 19 -14 4 -53 7 -87 8 -91 1 -287 29 -371 51 -89
25 -111 25 -139 1z"/>
<path d="M6376 6651 c-17 -19 -17 -20 6 -34 85 -55 316 -92 418 -67 66 16 55
23 -75 44 -95 16 -282 58 -316 71 -9 3 -23 -3 -33 -14z"/>
<path d="M4327 6620 c-125 -32 -226 -131 -243 -239 -6 -38 -5 -41 22 -52 16
-6 75 -16 132 -21 l102 -11 0 -48 c0 -45 2 -48 44 -73 43 -25 106 -88 106
-106 0 -6 5 -10 10 -10 6 0 10 9 10 19 0 24 30 35 70 26 29 -6 42 7 20 20 -15
9 -12 42 6 59 9 9 32 16 56 16 l41 0 -21 23 c-29 31 -28 47 3 47 32 0 31 7 -5
50 -17 19 -30 40 -30 47 0 7 17 20 38 29 l37 16 -29 21 c-62 47 -69 54 -62 65
4 7 22 12 39 13 l32 1 -33 14 c-25 11 -32 20 -30 36 2 17 -6 24 -52 40 -63 22
-207 32 -263 18z m4 -159 c-19 -15 -22 -23 -17 -49 6 -25 3 -33 -13 -41 -22
-12 -81 -15 -81 -3 1 16 101 112 117 112 15 0 14 -3 -6 -19z"/>
<path d="M6282 6587 c-12 -6 -22 -14 -22 -18 0 -19 109 -79 200 -111 66 -22
200 -36 200 -20 0 6 -15 14 -32 17 -57 13 -232 84 -279 113 -36 23 -49 27 -67
19z"/>
<path d="M6160 6530 c-12 -7 -11 -13 10 -35 72 -77 234 -150 316 -143 l39 3
-59 18 c-93 29 -189 81 -229 126 -38 42 -51 48 -77 31z"/>
<path d="M6075 6500 c-9 -14 39 -83 84 -121 48 -40 148 -89 180 -89 21 0 9 11
-59 56 -47 30 -110 80 -141 111 -37 36 -59 51 -64 43z"/>
<path d="M5968 6475 c-7 -7 23 -67 56 -109 32 -42 103 -90 174 -116 81 -31 97
-20 27 18 -97 52 -174 118 -196 168 -18 40 -43 56 -61 39z"/>
<path d="M5931 6331 l-24 -18 54 -43 c57 -45 142 -90 172 -90 11 0 -9 21 -50
51 -37 28 -81 66 -98 85 -30 34 -30 34 -54 15z"/>
<path d="M5806 6267 c-17 -12 -15 -16 30 -57 49 -43 130 -87 141 -76 8 8 -118
140 -137 144 -8 1 -23 -3 -34 -11z"/>
<path d="M4085 6236 c-17 -22 -29 -53 -32 -80 -9 -77 17 -133 32 -68 9 44 64
102 119 128 27 13 54 20 59 17 5 -3 7 -31 4 -62 l-6 -56 20 24 c12 15 19 38
19 66 0 51 0 51 -111 60 l-76 7 -28 -36z"/>
<path d="M5682 6219 c-13 -5 -22 -14 -20 -21 5 -13 90 -62 128 -73 21 -7 19
-2 -18 40 -23 26 -42 52 -42 56 0 11 -18 10 -48 -2z"/>
<path d="M5582 6158 c-18 -18 -15 -24 23 -43 49 -23 59 -16 33 22 -25 35 -37
40 -56 21z"/>
<path d="M4796 5645 c-16 -64 -104 -127 -219 -155 -45 -12 -64 -30 -31 -30 10
0 14 -7 12 -22 -3 -20 1 -23 30 -20 51 4 69 -10 64 -52 -2 -20 -2 -36 2 -36 3
0 21 14 40 31 25 22 41 29 56 24 17 -5 20 -2 20 24 0 24 4 31 19 31 11 0 23
-9 26 -20 3 -11 10 -20 15 -20 17 0 59 61 75 110 12 37 22 50 36 50 11 0 19
-7 19 -16 0 -25 25 -10 28 17 3 21 -7 29 -83 67 -47 23 -89 42 -94 42 -5 0
-12 -11 -15 -25z"/>
<path d="M3829 5621 c-13 -11 -20 -23 -16 -27 4 -4 20 4 35 19 30 31 16 37
-19 8z"/>
<path d="M3938 5607 c-74 -18 -115 -103 -83 -170 14 -29 58 -63 125 -95 4 -1
16 22 29 53 20 48 28 56 62 66 21 7 39 14 39 17 0 2 -21 32 -46 66 -51 67 -70
77 -126 63z"/>
<path d="M5795 5564 c45 -85 -5 -109 -98 -48 l-38 25 -18 -22 c-17 -21 -21
-22 -57 -10 -22 7 -45 15 -51 17 -7 3 -13 -1 -13 -10 0 -8 -8 -19 -17 -25 -16
-9 -16 -12 -2 -43 24 -49 130 -187 180 -234 31 -29 67 -49 121 -67 42 -15 84
-27 92 -27 22 0 -77 98 -174 172 -41 31 -99 82 -129 112 -46 47 -52 57 -41 70
7 9 17 16 21 16 5 0 35 -26 67 -58 157 -160 334 -249 512 -258 l85 -5 -100 35
c-55 20 -142 56 -193 82 -97 49 -272 161 -272 174 0 4 7 13 15 20 11 9 34 -1
121 -56 120 -75 240 -133 347 -170 56 -19 91 -24 166 -24 86 1 93 2 71 14 -14
7 -47 17 -75 21 -106 15 -396 128 -395 154 0 3 6 14 13 23 12 15 17 15 58 -9
131 -75 331 -129 439 -117 139 14 141 37 5 60 -170 30 -327 85 -455 160 -32
18 -68 34 -79 34 -11 0 -44 9 -73 20 -29 11 -54 20 -55 20 -1 0 9 -21 22 -46z"/>
<path d="M5414 5443 c59 -171 90 -218 200 -299 56 -42 86 -54 86 -35 0 5 -27
38 -61 73 -82 85 -128 147 -181 242 -55 102 -75 110 -44 19z"/>
<path d="M5333 5450 c7 -58 54 -180 93 -242 42 -65 42 -24 1 64 -19 40 -47
108 -62 151 -15 42 -30 77 -33 77 -2 0 -2 -22 1 -50z"/>
<path d="M4921 5452 c-28 -54 -75 -96 -100 -89 -14 3 -21 0 -21 -10 0 -23 -56
-74 -74 -67 -9 3 -16 12 -16 20 0 11 -7 10 -35 -3 -34 -16 -36 -16 -57 4 l-21
21 -53 -26 c-49 -24 -54 -29 -54 -58 0 -45 45 -78 94 -69 25 5 57 -1 115 -20
l80 -27 35 22 c42 25 45 37 14 42 -40 5 -34 42 15 90 51 50 97 110 121 155 20
40 20 40 -4 46 -16 4 -25 -3 -39 -31z"/>
<path d="M4120 5433 c-24 -3 -50 -9 -57 -15 -20 -16 -46 -116 -38 -145 8 -33
19 -21 35 39 7 26 23 59 36 73 21 23 30 26 86 23 80 -4 87 -23 11 -31 -68 -7
-85 -23 -103 -97 -11 -45 -10 -53 5 -70 10 -11 21 -20 25 -20 4 0 14 27 23 59
24 85 49 110 114 113 29 1 56 -1 59 -5 13 -13 -9 -25 -57 -32 -45 -6 -52 -11
-64 -39 -27 -64 -29 -102 -6 -125 28 -28 42 -19 29 17 -14 36 -4 77 27 108 37
37 90 33 154 -11 l51 -35 0 30 c0 32 -6 28 140 93 23 10 22 11 -25 17 -41 4
-51 9 -53 26 -3 21 -5 21 -54 -12 -27 -19 -61 -34 -75 -34 -14 0 -58 18 -98
40 -40 22 -83 39 -96 38 -13 -1 -44 -3 -69 -5z"/>
<path d="M4269 5239 c-17 -33 1 -61 75 -114 63 -44 86 -50 86 -20 0 7 12 22
26 32 l26 19 -71 52 c-80 58 -122 67 -142 31z"/>
<path d="M4987 5172 c-32 -21 -41 -23 -62 -14 -22 10 -31 7 -72 -24 -43 -33
-52 -36 -95 -31 -26 3 -61 13 -79 23 -35 17 -98 15 -171 -6 -31 -9 -39 -17
-48 -48 -14 -52 -13 -117 3 -131 20 -16 27 -4 27 44 0 74 16 102 68 119 58 20
92 21 92 1 0 -8 -17 -19 -42 -25 -24 -6 -48 -13 -55 -15 -15 -5 -33 -69 -33
-117 0 -27 6 -41 22 -52 34 -24 38 -20 38 39 0 31 6 71 14 90 12 28 23 36 67
49 29 9 56 16 61 16 16 0 8 -31 -9 -36 -82 -26 -87 -32 -97 -109 -4 -37 -2
-56 8 -70 14 -19 15 -17 10 15 -8 50 30 117 80 143 38 20 39 20 95 1 31 -10
62 -20 69 -22 8 -2 12 8 12 31 0 36 -2 35 144 129 7 5 7 10 1 17 -6 5 -24 -1
-48 -17z"/>
<path d="M4743 4989 c-23 -8 -47 -39 -57 -75 -6 -18 9 -33 96 -98 l103 -77 6
54 c6 53 39 117 60 117 39 0 -73 54 -176 84 -5 2 -20 0 -32 -5z"/>
<path d="M4968 4877 c-37 -35 -53 -91 -39 -137 13 -43 24 -54 64 -64 20 -5 27
-3 27 8 0 8 -4 18 -10 21 -14 9 -12 87 3 106 17 23 52 39 82 39 32 0 29 20 -6
37 -39 21 -93 16 -121 -10z"/>
<path d="M5062 4788 c-19 -19 -15 -66 8 -78 17 -9 23 -6 40 22 11 18 19 40 18
48 -4 19 -49 25 -66 8z"/>
<path d="M622 5430 l-33 -99 -112 -3 -112 -3 88 -63 c48 -35 87 -69 87 -76 0
-7 -13 -52 -30 -101 -16 -49 -28 -91 -25 -93 2 -3 43 23 90 57 l85 62 86 -61
c47 -34 87 -60 89 -58 2 2 -9 45 -25 96 -17 51 -30 96 -30 101 0 6 39 38 87
73 l87 63 -112 3 -111 3 -33 99 c-18 55 -35 100 -38 100 -3 0 -20 -45 -38
-100z"/>
<path d="M9539 5430 l-33 -99 -111 -3 -110 -3 80 -59 c44 -32 84 -62 89 -66 4
-5 -6 -52 -24 -105 -18 -53 -30 -99 -27 -102 3 -2 38 19 79 49 40 30 78 57 85
61 7 4 47 -18 96 -53 46 -33 87 -60 89 -60 3 0 -7 41 -23 92 -16 51 -29 98
-29 105 0 7 36 39 80 71 43 31 79 60 80 64 0 4 -48 9 -107 10 l-107 3 -31 97
c-16 54 -33 98 -37 98 -4 0 -21 -45 -39 -100z"/>
<path d="M830 4459 c-58 -11 -179 -33 -269 -49 -90 -16 -166 -31 -168 -33 -2
-2 2 -27 8 -56 7 -36 15 -51 27 -51 15 0 407 68 530 91 l53 11 -7 36 c-11 67
-14 72 -42 71 -15 0 -74 -10 -132 -20z"/>
<path d="M9218 4433 c-67 -149 -8 -298 121 -311 63 -6 111 17 159 76 84 103
98 115 130 115 74 0 96 -83 47 -179 -13 -26 -21 -52 -17 -56 4 -4 23 -14 44
-22 35 -15 37 -15 51 8 28 42 49 136 45 196 -8 106 -75 172 -178 173 -61 1
-109 -29 -161 -99 -54 -73 -78 -94 -109 -94 -59 0 -78 75 -40 158 l19 42 -39
20 c-22 11 -42 20 -45 20 -3 0 -16 -21 -27 -47z"/>
<path d="M750 4125 c-140 -41 -265 -79 -277 -84 -20 -9 -20 -13 -9 -50 6 -22
14 -43 18 -46 6 -7 246 58 356 96 30 10 57 18 59 16 2 -2 -32 -34 -74 -70 -43
-37 -124 -111 -180 -165 l-103 -97 16 -52 c9 -32 21 -53 30 -53 7 0 116 29
241 65 126 36 248 71 272 78 24 6 45 17 48 23 6 15 -15 94 -25 94 -7 0 -342
-100 -387 -115 -12 -4 -6 4 15 21 48 40 320 295 320 301 0 3 -7 29 -16 59 -11
38 -20 54 -32 53 -9 0 -132 -34 -272 -74z"/>
<path d="M9104 3953 c-9 -30 -14 -56 -12 -57 1 -2 37 -12 78 -24 41 -11 169
-48 285 -81 115 -33 212 -58 216 -56 12 8 32 96 23 104 -8 8 -197 64 -491 146
l-83 23 -16 -55z"/>
<path d="M9016 3690 c-9 -22 -16 -44 -16 -49 0 -9 173 -80 324 -134 l69 -24
-84 -7 c-114 -9 -294 -27 -348 -35 -43 -6 -44 -8 -64 -63 -12 -32 -19 -59 -16
-61 4 -3 500 -198 541 -213 13 -4 20 1 28 20 23 61 22 72 -3 83 -46 21 -312
122 -340 128 -50 13 -39 25 23 25 51 0 422 37 426 43 2 3 44 99 44 102 0 5
-551 225 -563 225 -3 0 -12 -18 -21 -40z"/>
<path d="M1040 3588 c-63 -32 -90 -90 -98 -205 -4 -73 -9 -91 -28 -110 -60
-60 -136 5 -151 127 -6 49 -6 49 -37 43 -60 -11 -68 -20 -61 -66 14 -87 70
-182 129 -218 59 -36 165 -20 213 32 32 35 44 74 52 176 4 51 14 99 21 108 7
8 27 15 45 15 41 0 81 -44 90 -98 11 -63 11 -64 52 -56 53 9 56 12 48 53 -15
91 -69 175 -129 202 -54 25 -92 24 -146 -3z"/>
<path d="M1338 3219 c-21 -11 -38 -23 -38 -27 0 -4 16 -33 35 -66 20 -32 35
-60 33 -61 -3 -3 -32 -20 -275 -159 -84 -48 -153 -92 -153 -98 0 -18 43 -88
54 -88 6 0 105 54 220 120 115 66 212 117 216 115 5 -3 22 -30 39 -60 17 -30
34 -55 36 -55 9 0 85 40 85 45 0 2 -32 60 -71 127 -39 68 -85 147 -101 176
-16 28 -33 52 -36 52 -4 -1 -24 -10 -44 -21z"/>
<path d="M8778 3152 c-98 -102 -109 -223 -29 -303 68 -68 146 -62 266 21 61
42 106 49 134 21 34 -34 28 -89 -14 -144 -19 -25 -43 -51 -53 -56 -15 -9 -14
-13 12 -40 37 -38 55 -39 88 -3 127 137 126 297 -3 362 -67 34 -122 24 -224
-42 -75 -49 -98 -55 -130 -34 -43 28 -29 101 29 155 32 30 32 42 4 68 -38 34
-44 33 -80 -5z"/>
<path d="M1425 2619 c-121 -88 -229 -166 -239 -173 -19 -12 -19 -14 14 -59 18
-26 35 -47 37 -47 8 0 479 342 482 351 4 14 -49 89 -63 88 -6 0 -110 -72 -231
-160z"/>
<path d="M8516 2736 c-14 -19 -26 -41 -26 -48 0 -7 29 -33 65 -58 36 -25 143
-100 237 -168 95 -67 177 -121 183 -119 5 2 22 21 37 43 25 37 26 40 10 56
-26 25 -460 328 -471 328 -5 0 -20 -15 -35 -34z"/>
<path d="M1761 2555 c-17 -15 -31 -31 -31 -37 0 -5 20 -33 45 -61 43 -49 45
-53 27 -67 -90 -74 -362 -313 -362 -319 1 -3 18 -23 39 -45 l38 -38 54 47 c68
60 90 79 215 188 56 48 106 87 110 87 5 0 27 -22 49 -50 22 -27 45 -49 51 -50
5 0 24 15 41 33 l32 32 -130 150 c-72 83 -134 151 -138 153 -5 2 -23 -9 -40
-23z"/>
<path d="M8352 2479 c-37 -11 -133 -102 -180 -171 l-32 -47 37 -34 c21 -19
112 -98 203 -177 91 -79 176 -153 189 -164 l23 -21 68 73 c89 94 124 164 118
233 -9 88 -79 154 -158 147 -25 -3 -53 -8 -62 -12 -16 -7 -18 -2 -18 34 0 63
-26 109 -74 131 -45 20 -65 22 -114 8z m79 -128 c16 -16 29 -39 29 -51 0 -26
-22 -70 -46 -92 -18 -16 -22 -14 -78 36 l-60 53 23 29 c22 28 62 53 89 54 8 0
27 -13 43 -29z m184 -145 c18 -8 38 -23 44 -34 23 -42 7 -106 -36 -144 -18
-17 -22 -15 -83 39 -36 31 -67 60 -69 65 -5 14 40 59 74 74 37 16 30 16 70 0z"/>
<path d="M2015 2038 c-162 -169 -195 -219 -195 -299 0 -147 172 -254 305 -189
37 18 292 262 329 316 14 19 12 24 -25 60 l-41 39 -146 -153 c-158 -164 -196
-190 -254 -170 -34 12 -58 44 -58 76 0 48 33 94 169 237 l141 149 -37 38 c-20
21 -40 38 -44 38 -4 0 -69 -64 -144 -142z"/>
<path d="M7768 1930 c-127 -69 -123 -227 7 -290 41 -20 44 -24 38 -48 -43
-160 97 -289 240 -222 54 25 116 91 124 133 5 23 10 27 41 27 36 0 124 55 118
75 -1 5 -20 13 -42 17 -85 17 -81 14 -92 77 -13 70 -50 161 -66 161 -7 0 -27
-12 -45 -28 l-33 -27 26 -51 c28 -56 34 -95 14 -93 -7 1 -42 9 -78 18 -47 12
-64 21 -61 31 14 61 13 135 -3 164 -38 69 -120 93 -188 56z m89 -92 c18 -17
23 -32 23 -70 0 -44 -2 -48 -24 -48 -39 0 -86 46 -86 84 0 57 44 75 87 34z
m166 -263 c89 -20 98 -36 48 -86 -65 -64 -171 -20 -171 71 0 39 2 42 23 37 12
-3 57 -13 100 -22z"/>
<path d="M2526 1796 c-14 -19 -26 -39 -26 -44 0 -5 25 -26 55 -47 30 -20 55
-40 55 -44 0 -3 -63 -94 -140 -201 -77 -107 -140 -199 -140 -205 0 -11 73 -65
88 -65 6 0 12 4 14 10 6 19 273 390 280 390 5 0 30 -16 57 -35 26 -19 53 -35
59 -35 5 0 21 15 35 34 l26 33 -22 20 c-19 18 -274 199 -303 216 -7 4 -23 -8
-38 -27z"/>
<path d="M7263 1564 c-24 -15 -43 -30 -43 -35 0 -5 20 -40 44 -77 24 -37 92
-143 151 -237 59 -93 113 -175 119 -182 8 -10 21 -6 53 15 24 15 43 32 43 39
0 13 -307 497 -318 500 -4 1 -26 -9 -49 -23z"/>
<path d="M3073 1468 c-16 -26 -33 -61 -33 -69 0 -5 27 -22 60 -39 33 -17 60
-33 60 -37 0 -8 -117 -239 -181 -360 -22 -40 -39 -76 -39 -81 0 -4 21 -18 47
-31 38 -18 48 -20 58 -9 7 7 58 103 114 213 56 110 106 204 110 208 5 5 36 -6
70 -23 34 -18 63 -31 65 -29 9 9 47 82 44 84 -9 7 -356 185 -361 185 -3 0 -9
-6 -14 -12z"/>
<path d="M6979 1407 c-168 -70 -242 -212 -194 -371 21 -69 56 -125 109 -174
58 -54 85 -64 166 -65 56 -1 77 4 140 34 75 36 140 82 140 100 0 15 -122 279
-129 279 -14 0 -171 -74 -171 -80 0 -12 30 -80 35 -80 2 0 20 8 40 17 19 9 36
15 38 12 11 -18 57 -122 57 -130 0 -21 -91 -52 -137 -46 -107 12 -201 161
-179 282 13 66 111 145 180 145 33 0 39 13 31 60 -6 37 -9 40 -38 40 -18 0
-57 -11 -88 -23z"/>
<path d="M3534 1249 c-18 -29 -191 -560 -184 -564 29 -18 304 -105 310 -98 4
4 13 23 20 41 16 42 17 41 -107 82 l-91 31 23 70 c13 38 26 73 30 78 3 6 43
-3 92 -20 48 -16 90 -29 94 -29 9 0 33 80 26 86 -2 2 -40 17 -85 32 -45 16
-84 31 -87 34 -4 3 31 123 39 135 1 1 41 -11 89 -28 49 -16 94 -29 102 -29 13
0 42 77 32 86 -13 14 -298 101 -303 93z"/>
<path d="M6332 1152 c-137 -49 -195 -198 -144 -369 58 -189 211 -281 362 -215
118 51 170 170 136 314 -51 218 -193 327 -354 270z m107 -96 c68 -36 123 -136
135 -246 10 -98 -32 -162 -108 -162 -51 0 -95 37 -135 112 -26 49 -34 77 -38
139 -7 91 10 135 60 156 41 18 52 18 86 1z"/>
<path d="M3964 990 c-14 -63 -34 -149 -44 -190 -27 -108 -60 -259 -60 -275 0
-7 13 -15 29 -18 16 -3 40 -9 54 -12 24 -7 25 -4 47 92 21 94 47 143 75 143 6
0 26 -59 45 -135 18 -74 38 -139 44 -144 6 -5 27 -12 46 -16 19 -3 43 -9 53
-11 25 -7 22 9 -22 164 -22 75 -44 154 -49 175 l-10 37 113 102 c63 56 112
105 110 109 -3 3 -32 12 -66 19 l-61 13 -106 -106 c-58 -59 -107 -105 -110
-103 -2 3 8 56 22 118 14 62 26 118 26 123 0 6 -25 15 -55 21 l-54 10 -27
-116z"/>
<path d="M5765 1013 c-11 -2 -30 -6 -42 -9 -16 -3 -23 -12 -23 -27 0 -32 92
-561 99 -568 3 -4 76 5 161 20 l155 27 3 35 c4 61 -3 65 -114 46 -55 -9 -102
-13 -105 -9 -4 4 -21 90 -39 192 -18 102 -36 205 -41 230 -4 25 -8 51 -8 58
-1 12 -9 13 -46 5z"/>
<path d="M4481 833 c-7 -87 -16 -202 -21 -256 -6 -54 -10 -118 -10 -142 l0
-44 45 -7 c25 -3 49 -4 52 0 3 3 13 101 22 218 l17 213 28 -75 c43 -111 147
-353 158 -367 6 -8 33 -13 63 -13 l52 0 12 148 c6 81 16 199 21 264 16 193 18
184 -37 192 -30 4 -49 2 -53 -5 -4 -6 -10 -72 -14 -147 -4 -75 -9 -166 -13
-201 l-6 -63 -27 73 c-36 98 -140 341 -152 357 -6 7 -34 12 -68 12 l-57 0 -12
-157z"/>
<path d="M5234 951 c-52 -24 -109 -91 -131 -155 -24 -70 -23 -204 1 -275 25
-72 95 -145 156 -161 108 -29 226 12 280 97 53 83 65 222 30 334 -37 120 -113
179 -231 179 -40 0 -79 -7 -105 -19z m154 -91 c49 -30 76 -97 76 -190 1 -101
-9 -144 -46 -185 -26 -31 -36 -35 -78 -35 -42 0 -52 4 -79 35 -36 42 -52 93
-52 177 -1 106 22 166 74 198 41 25 64 25 105 0z"/>
<path d="M3456 4163 c-34 -304 -90 -1058 -80 -1074 5 -9 157 -13 165 -5 3 3 2
47 -2 98 -9 118 -35 517 -54 807 -7 122 -16 225 -18 227 -2 3 -7 -21 -11 -53z"/>
<path d="M6807 4207 c-4 -11 -12 -69 -17 -130 -41 -459 -79 -978 -73 -989 2
-5 43 -8 90 -8 l86 0 -7 58 c-9 76 -23 289 -56 867 -13 225 -13 226 -23 202z"/>
</g>
</svg>
